<svg width="1703" height="1729" viewBox="0 0 1703 1729" fill="none" xmlns="http://www.w3.org/2000/svg">
<path fill-rule="evenodd" clip-rule="evenodd" d="M1253.09 89.9778C1267.08 86.3326 1281.92 88.5855 1294.23 96.2154C1319.99 112.301 1323.44 142.719 1307.17 167.229C1324.71 186.288 1342.47 205.137 1360.45 223.769C1367.14 230.788 1381.81 245.334 1386.72 252.001C1391.47 256.934 1397.14 262.554 1401.63 267.597L1401.79 438.274C1401.78 471.24 1402.46 506.319 1401.76 539.077C1388.47 555.613 1374.93 571.93 1361.12 588.02C1408.86 636.81 1459.74 683.734 1507.48 732.584C1523.04 748.502 1551.06 773.757 1564.88 789.759C1580.95 988.869 1587.05 1148.67 1497.54 1332.57C1472.1 1386.15 1440.05 1436.27 1402.17 1481.76C1333.83 1563.07 1253.74 1627.88 1156.91 1672.05C1145.53 1677.25 1120.8 1687.96 1109.15 1691.34C1101.3 1694.23 1092.16 1697.86 1084.14 1699.87C1063.64 1705.97 1008.58 1721 987.943 1721.67C956.994 1727.71 871.529 1732.64 840.849 1725.39C819.212 1725.79 788.485 1719.09 767.085 1714.38C654.856 1690.57 551.839 1634.56 470.426 1553.08C409.708 1491.59 356.364 1402.86 342.52 1315.42C340.074 1299.96 340.932 1262.35 340.948 1245.3L340.969 868.336C341.104 804.571 376.377 748.947 436.585 727.037C461.288 718.049 484.839 718.917 510.581 718.988L570.593 719.238L570.499 1235.77C570.494 1245.75 570.878 1256.27 570.493 1266.26C558.69 1520.67 833.391 1598.77 1036.99 1583.87C1226.62 1569.86 1403.6 1458.48 1488.68 1285.33C1566.1 1127.8 1556.2 968.604 1543.19 798.345C1524.56 778.668 1499.59 755.28 1479.87 735.74L1332.23 590.24C1343.31 576.463 1371.31 544.768 1379.41 532.036L1379.48 274.812C1362.82 258.75 1336.77 231.119 1321.65 213.31C1311.42 205.217 1300 191.002 1290.55 181.586C1274.29 187.407 1260.31 189.621 1243.73 181.81C1231.76 176.257 1222.63 165.902 1218.56 153.252C1209.91 126.086 1225.44 97.0626 1253.09 89.9778ZM1266.3 110.614C1251.58 110.761 1239.76 122.925 1239.9 137.78C1240.05 152.635 1252.12 164.554 1266.84 164.399C1281.56 164.244 1293.38 152.082 1293.22 137.232C1293.07 122.382 1281.02 110.465 1266.3 110.614Z" fill="url(#paint0_linear_690_199)"/>
<path fill-rule="evenodd" clip-rule="evenodd" d="M1234.34 376.447C1244.93 371.282 1257.15 370.722 1268.18 374.897C1290.32 383.248 1300.51 407.32 1292.39 429.966C1287.78 442.789 1275.57 449.68 1263.54 454.497C1262.95 503.966 1263.31 554.631 1263.45 604.156C1289.86 631.801 1323.11 662.748 1350.7 689.813L1496.9 833.055C1497.59 866.388 1501.96 902.616 1503.04 936.267C1506.21 1034.99 1499.41 1129.31 1462.01 1221.61C1426.66 1309.07 1365.96 1383.72 1287.85 1435.78C1275.42 1444.03 1254.37 1457.33 1240.74 1463.1C1143.23 1514.21 1031.94 1523.82 924.705 1509.04C902.319 1505.96 860.826 1500.39 839.571 1493.72L837.556 1493.07C818.72 1491.53 755.425 1467.73 734.822 1460.05L734.938 551.472C849.302 550.838 959.119 617.967 960.495 744.225C960.655 759.02 960.507 773.87 960.507 788.671L960.36 1323.63L1067.18 1323.74C1090.24 1323.77 1117.86 1324.93 1140.49 1322.22C1234.19 1310.94 1313.05 1235.23 1335.94 1144.01C1344.14 1111.28 1342.76 1079.91 1342.72 1046.68L1342.63 968.146L1342.68 712L1278.47 649.293C1267.05 638.213 1253.37 624.234 1241.4 614.073L1241.44 455.201C1218.38 444.758 1204.41 426.835 1213.33 400.359C1216.81 389.83 1224.39 381.191 1234.34 376.447ZM1272.88 409.289C1270.17 398.408 1259.23 391.8 1248.44 394.521C1237.62 397.249 1231.06 408.316 1233.77 419.224C1236.5 430.131 1247.48 436.74 1258.28 433.974C1269.07 431.215 1275.6 420.17 1272.88 409.289Z" fill="url(#paint1_linear_690_199)"/>
<path d="M577.57 1679.95C552.019 1671.37 522.296 1657.81 498.207 1646C398.866 1598.28 309.225 1532.28 233.892 1451.38C75.7733 1281.94 -8.26433 1055.53 0.642202 822.991C9.37058 597.008 118.325 397.684 280.256 244.519C448.135 85.728 689.832 -8.78764 920.982 0.645826C873.47 10.2974 826.56 22.7465 780.496 37.9285C532.754 118.466 315.611 294.305 196.817 529.82C97.6852 726.353 72.4191 934.135 138.937 1145.86C206.352 1360.44 381.169 1575.5 580.327 1678.08L577.57 1679.95Z" fill="url(#paint2_linear_690_199)"/>
<path d="M462.609 405.332C533.826 403.47 593.067 460.172 594.963 532.012C596.859 603.853 540.693 663.656 469.479 665.619C398.195 667.585 338.841 610.855 336.942 538.943C335.044 467.03 391.322 407.196 462.609 405.332Z" fill="url(#paint3_linear_690_199)"/>
<path fill-rule="evenodd" clip-rule="evenodd" d="M1493.63 345.108C1504.95 341.405 1517.26 342.321 1527.91 347.66C1538.34 352.953 1546.16 362.329 1549.54 373.598C1556.92 398.711 1542.39 418.896 1518.49 425.76C1518.21 477.861 1517.33 535.523 1518.86 587.362L1496.52 611.446L1580.56 694.687C1592.43 706.428 1617.52 729.901 1627.51 741.781C1637.8 891.795 1641.28 1026.25 1608.7 1174.49C1603.22 1199.27 1596.73 1223.8 1589.25 1248.03C1586.59 1256.8 1582.34 1267.76 1580.14 1275.96C1599.11 1243.58 1618.43 1195.8 1630.6 1160.17C1665.72 1054.05 1682.85 942.724 1681.25 830.858C1680.79 782.305 1677.21 738.483 1673.57 690.397C1655.3 668.522 1620.53 635.131 1599.42 613.074C1543.91 625.925 1533.42 557.568 1580.87 549.664C1608.69 545.031 1626.02 570.024 1614.08 598.193C1635.46 619.362 1675.7 659.12 1694.75 681.376C1703.83 777.628 1706.88 870.689 1696.31 967.067C1678.76 1133.98 1613.43 1292.15 1508.32 1422.27C1490.82 1443.57 1464.85 1472.86 1444.94 1491.5L1442.5 1489.24C1554.22 1345.24 1600.58 1171.96 1611.16 991.174C1615.89 910.275 1610.41 830.877 1606.07 750.259C1574.42 717.069 1539.03 684.667 1506.93 651.651C1494.46 638.821 1480.25 626.336 1468.45 613.031C1477.44 601.677 1486.45 591.757 1496.25 581.143L1496.18 425.864C1472.78 416.369 1457.33 395.274 1468.68 369.417C1473.57 358.277 1481.86 349.078 1493.63 345.108ZM1600.33 578.852C1598.6 570.552 1590.62 565.161 1582.34 566.695C1576.8 567.724 1572.24 571.709 1570.45 577.104C1568.64 582.5 1569.9 588.453 1573.71 592.654C1577.51 596.853 1583.28 598.636 1588.77 597.313C1596.94 595.338 1602.07 587.151 1600.33 578.852ZM1528.77 381.31C1526.62 369.911 1515.81 362.357 1504.47 364.342C1496.98 365.654 1490.77 370.941 1488.23 378.171C1485.69 385.402 1487.2 393.454 1492.2 399.238C1497.18 405.024 1504.89 407.642 1512.33 406.089C1523.6 403.74 1530.92 392.71 1528.77 381.31Z" fill="url(#paint4_linear_690_199)"/>
<g filter="url(#filter0_d_690_199)">
<path d="M726.038 241.378C725.829 241.348 725.62 241.318 725.41 241.289C725.608 241.243 725.818 241.274 726.038 241.378Z" fill="#E4B61F"/>
<path d="M1086.05 241.378C1086.26 241.348 1086.47 241.318 1086.68 241.289C1086.48 241.243 1086.27 241.274 1086.05 241.378Z" fill="#E4B61F"/>
<path fill-rule="evenodd" clip-rule="evenodd" d="M892.826 379.701C894.478 357.979 906.317 325.712 906.317 325.712C906.317 325.712 917.609 357.979 919.261 379.701C920.843 400.491 916.744 433.034 916.744 433.034C916.744 433.034 942.219 422.019 959.542 420.97C975.408 420.01 998.161 426.065 1003.64 427.604C1004.45 427.833 1005.28 427.993 1006.12 428.023C1008.62 428.109 1014.23 428.05 1017.45 426.049C1021.17 423.734 1025 417.796 1025 417.796C1025 417.796 1025 408.272 1014.93 405.732C1009.96 404.48 1000.81 406.957 990.949 409.625C981.32 412.231 971.015 415.02 963.271 414.699C962.461 414.665 961.663 414.513 960.893 414.259C945.707 409.251 937.498 394.735 936.884 386.685C936.884 368.272 942.548 357.478 955.136 343.51C958.039 354.988 960.359 361.437 970.593 371.224C971.192 371.797 971.855 372.302 972.561 372.733C983.794 379.589 991.784 382.879 1009.26 386.685C1018.1 389.93 1022.93 392.66 1028.66 401.399C1029.16 402.162 1029.57 402.99 1029.85 403.859C1031.49 408.911 1031.32 412.187 1029.4 417.796L1025 426.684C1031.81 423.636 1035.08 420.75 1038.56 413.957C1039.18 412.727 1039.56 411.379 1039.7 410.003C1040.65 400.785 1040.15 395.983 1037.56 391.253C1036.81 389.876 1035.67 388.763 1034.39 387.863L1009.26 370.177C996.093 363.238 989.243 357.944 978.36 344.997C977.154 344.014 976.13 342.814 975.378 341.446C967.153 326.49 965.69 316.883 969.161 300.484C969.448 299.125 969.978 297.824 970.72 296.654C981.699 279.34 990.635 274.431 1008 269.86C1003.38 281.532 1001.89 288.953 1005.17 305.158C1005.38 306.173 1005.72 307.157 1006.17 308.086C1012.48 320.966 1016.73 328.441 1027.52 340.336C1037.21 350.392 1042.49 356.458 1050.8 366.71C1051.63 367.742 1052.31 368.907 1052.77 370.156C1059.03 387.058 1058.6 394.975 1052.06 405.732L1036.33 426.684C1053.85 420.332 1062.42 414.84 1072.83 396.079C1073.25 395.328 1073.6 394.526 1073.81 393.692C1075.61 386.525 1074.32 378.957 1073.17 372.208C1073.06 371.522 1072.94 370.845 1072.83 370.177C1071.93 364.7 1064.06 354.511 1055.03 342.819C1044.17 328.76 1031.64 312.527 1027.52 299.701C1020 276.318 1040.96 247.887 1086.05 241.378C1081.86 243.352 1074.06 271.506 1078.5 290.812C1081.28 302.918 1086.51 311.686 1091.62 320.252C1097.57 330.225 1103.36 339.925 1104.93 354.304C1105.2 356.728 1105.47 359.016 1105.74 361.209C1107.22 373.425 1108.35 382.707 1104.93 396.208C1096.81 428.27 1069.06 443.012 1036.33 445.097C1020.55 446.102 997.952 437.2 992.32 434.859C991.442 434.493 990.556 434.217 989.619 434.061C981.366 432.688 938.503 426.47 916.744 441.287C913.117 443.757 906.044 448.906 906.044 448.906C906.044 448.906 898.971 443.757 895.344 441.287C873.585 426.47 830.722 432.688 822.469 434.061C821.531 434.217 820.646 434.493 819.767 434.859C814.135 437.2 791.538 446.102 775.76 445.097C743.024 443.012 715.273 428.27 707.157 396.208C703.74 382.707 704.866 373.425 706.349 361.209C706.615 359.016 706.892 356.728 707.157 354.304C708.729 339.925 714.517 330.225 720.467 320.252C725.579 311.686 730.811 302.918 733.592 290.812C738.026 271.506 730.227 243.352 726.038 241.378C771.128 247.887 792.09 276.318 784.572 299.701C780.448 312.527 767.914 328.76 757.057 342.819C748.029 354.511 740.162 364.7 739.256 370.177C739.146 370.845 739.031 371.522 738.914 372.208C737.767 378.957 736.48 386.525 738.28 393.692C738.49 394.526 738.836 395.328 739.253 396.079C749.665 414.84 758.234 420.332 775.76 426.684L760.026 405.732C753.489 394.975 753.062 387.058 759.315 370.156C759.778 368.907 760.453 367.742 761.29 366.71C769.601 356.458 774.877 350.392 784.572 340.336C795.357 328.441 799.612 320.966 805.917 308.086C806.372 307.157 806.713 306.173 806.918 305.158C810.198 288.953 808.709 281.532 804.083 269.86C821.452 274.431 830.389 279.34 841.368 296.654C842.11 297.824 842.64 299.125 842.927 300.484C846.398 316.883 844.934 326.49 836.71 341.446C835.958 342.814 834.934 344.014 833.728 344.997C825.177 357.568 818.641 363.254 802.824 370.177L777.695 387.863C776.417 388.763 775.28 389.876 774.527 391.253C771.94 395.983 771.434 400.785 772.384 410.003C772.526 411.379 772.904 412.727 773.532 413.957C777.007 420.75 780.282 423.636 787.089 426.684L782.684 417.796C780.766 412.187 780.6 408.911 782.237 403.859C782.519 402.99 782.926 402.162 783.427 401.399C789.157 392.66 793.987 389.93 802.824 386.685C820.304 382.879 828.293 379.589 839.527 372.733C840.233 372.302 840.896 371.797 841.495 371.224C851.728 361.437 854.049 354.988 856.951 343.51C869.539 357.478 875.204 368.272 875.204 386.685C874.59 394.735 866.381 409.251 851.195 414.259C850.424 414.513 849.626 414.665 848.816 414.699C841.073 415.02 830.768 412.231 821.139 409.625C811.277 406.957 802.125 404.48 797.16 405.732C787.089 408.272 787.089 417.796 787.089 417.796C787.089 417.796 790.916 423.734 794.642 426.049C797.862 428.05 803.468 428.109 805.966 428.023C806.81 427.993 807.636 427.833 808.449 427.604C813.926 426.065 836.68 420.01 852.546 420.97C869.868 422.019 895.344 433.034 895.344 433.034C895.344 433.034 891.245 400.491 892.826 379.701Z" fill="#E4B61F"/>
<path d="M818.203 459.679C809.519 456.308 805.835 453.638 801.21 447.616C807.108 450.097 810.65 451.425 818.203 452.695C829.532 453.965 834.567 454.6 845.896 453.33C862.89 451.425 870.552 449.729 884.918 446.346C871.639 453.164 861.024 457.339 846.526 460.949C835.826 462.219 829.013 462.356 818.203 459.679Z" fill="#E4B61F"/>
<path d="M992.543 459.679C1001.23 456.308 1004.91 453.638 1009.54 447.616C1003.64 450.097 1000.1 451.425 992.543 452.695C981.214 453.965 976.179 454.6 964.85 453.33C947.857 451.425 940.195 449.729 925.828 446.346C939.107 453.164 949.722 457.339 964.221 460.949C974.92 462.219 981.733 462.356 992.543 459.679Z" fill="#E4B61F"/>
<path d="M893.563 480.553C892.712 480.592 892.069 479.783 892.291 478.953L897.789 458.432C897.977 457.73 897.543 457.009 896.839 456.851C893.949 456.205 891.617 455.768 886.806 457.14C866.561 468.487 857.181 474.151 845.896 478.092C834.892 480.465 828.82 480.613 818.203 478.092C803.956 472.61 797.887 466.703 789.251 457.775C800.408 460.691 806.522 464.245 817.574 466.029C828.108 467.366 835.412 468.082 846.526 466.663C862.454 462.693 870.683 459.711 884.918 453.33C887.436 452.695 905.058 452.695 905.058 452.695C905.058 452.695 923.311 452.695 925.828 453.33C940.064 459.711 948.292 462.693 964.221 466.663C975.334 468.082 982.639 467.366 993.173 466.029C1004.22 464.245 1010.34 460.691 1021.49 457.775C1012.86 466.703 1006.79 472.61 992.543 478.092C981.927 480.613 975.854 480.465 964.85 478.092C953.565 474.151 944.185 468.487 923.94 457.14C919.129 455.768 916.797 456.205 913.907 456.851C913.203 457.009 912.769 457.73 912.957 458.432L918.455 478.953C918.678 479.783 918.035 480.592 917.183 480.553H893.563Z" fill="#E4B61F"/>
<path d="M906.317 325.709C891.338 295.968 879.829 285.963 854.078 279.36C861.137 254.635 869.041 246 893.1 243.805V228.567C871.238 217.566 870.524 175.633 906.317 176.504C942.111 175.633 941.396 217.566 919.534 228.567V243.805C943.594 246 951.498 254.635 958.556 279.36C932.806 285.963 921.297 295.968 906.317 325.709Z" fill="#E4B61F"/>
<path d="M890.583 154.919L905.688 144.126L920.793 154.919L916.387 135.872L930.234 123.809H911.352L905.688 103.491L900.023 123.809H881.142L894.988 135.872L890.583 154.919Z" fill="#E4B61F"/>
</g>
<defs>
<filter id="filter0_d_690_199" x="700.914" y="103.491" width="410.261" height="385.063" filterUnits="userSpaceOnUse" color-interpolation-filters="sRGB">
<feFlood flood-opacity="0" result="BackgroundImageFix"/>
<feColorMatrix in="SourceAlpha" type="matrix" values="0 0 0 0 0 0 0 0 0 0 0 0 0 0 0 0 0 0 127 0" result="hardAlpha"/>
<feOffset dy="4"/>
<feGaussianBlur stdDeviation="2"/>
<feComposite in2="hardAlpha" operator="out"/>
<feColorMatrix type="matrix" values="0 0 0 0 0 0 0 0 0 0 0 0 0 0 0 0 0 0 0.25 0"/>
<feBlend mode="normal" in2="BackgroundImageFix" result="effect1_dropShadow_690_199"/>
<feBlend mode="normal" in="SourceGraphic" in2="effect1_dropShadow_690_199" result="shape"/>
</filter>
<linearGradient id="paint0_linear_690_199" x1="851.5" y1="0" x2="851.5" y2="1729" gradientUnits="userSpaceOnUse">
<stop stop-color="#FAFAFA" stop-opacity="0.25"/>
<stop offset="0.182692" stop-color="#E4B61F"/>
</linearGradient>
<linearGradient id="paint1_linear_690_199" x1="851.5" y1="0" x2="851.5" y2="1729" gradientUnits="userSpaceOnUse">
<stop stop-color="#FAFAFA" stop-opacity="0.25"/>
<stop offset="0.182692" stop-color="#E4B61F"/>
</linearGradient>
<linearGradient id="paint2_linear_690_199" x1="851.5" y1="0" x2="851.5" y2="1729" gradientUnits="userSpaceOnUse">
<stop stop-color="#FAFAFA" stop-opacity="0.25"/>
<stop offset="0.182692" stop-color="#E4B61F"/>
</linearGradient>
<linearGradient id="paint3_linear_690_199" x1="851.5" y1="0" x2="851.5" y2="1729" gradientUnits="userSpaceOnUse">
<stop stop-color="#FAFAFA" stop-opacity="0.25"/>
<stop offset="0.182692" stop-color="#E4B61F"/>
</linearGradient>
<linearGradient id="paint4_linear_690_199" x1="851.5" y1="0" x2="851.5" y2="1729" gradientUnits="userSpaceOnUse">
<stop stop-color="#FAFAFA" stop-opacity="0.25"/>
<stop offset="0.182692" stop-color="#E4B61F"/>
</linearGradient>
</defs>
</svg>
